<mxfile host="Electron" modified="2024-05-07T12:13:10.790Z" agent="Mozilla/5.0 (Windows NT 10.0; Win64; x64) AppleWebKit/537.36 (KHTML, like Gecko) draw.io/24.2.5 Chrome/120.0.6099.109 Electron/28.1.0 Safari/537.36" etag="d0GvljbZlTQav447Udce" version="24.2.5" type="device">
  <diagram name="Page-1" id="VHY4qetphX2lr7-HC3_o">
    <mxGraphModel dx="1660" dy="822" grid="1" gridSize="10" guides="1" tooltips="1" connect="1" arrows="1" fold="1" page="1" pageScale="1" pageWidth="850" pageHeight="1100" math="0" shadow="0">
      <root>
        <mxCell id="0" />
        <mxCell id="1" parent="0" />
        <mxCell id="Qi7yZzlvUK0p3pHNjVTs-1" value="Nothing particular to take care of.&amp;nbsp;" style="whiteSpace=wrap;html=1;aspect=fixed;" vertex="1" parent="1">
          <mxGeometry x="200" y="320" width="200" height="200" as="geometry" />
        </mxCell>
        <mxCell id="Qi7yZzlvUK0p3pHNjVTs-5" value="Consider preprocessing data beforehand to make sure you do not run into IO bottlenecks" style="whiteSpace=wrap;html=1;aspect=fixed;" vertex="1" parent="1">
          <mxGeometry x="400" y="320" width="200" height="200" as="geometry" />
        </mxCell>
        <mxCell id="Qi7yZzlvUK0p3pHNjVTs-6" value="Process data in a online way" style="whiteSpace=wrap;html=1;aspect=fixed;" vertex="1" parent="1">
          <mxGeometry x="200" y="520" width="200" height="200" as="geometry" />
        </mxCell>
        <mxCell id="Qi7yZzlvUK0p3pHNjVTs-7" value="Process" style="whiteSpace=wrap;html=1;aspect=fixed;" vertex="1" parent="1">
          <mxGeometry x="400" y="520" width="200" height="200" as="geometry" />
        </mxCell>
        <mxCell id="Qi7yZzlvUK0p3pHNjVTs-9" value="Lots of data" style="text;html=1;align=center;verticalAlign=middle;whiteSpace=wrap;rounded=0;" vertex="1" parent="1">
          <mxGeometry x="120" y="605" width="60" height="30" as="geometry" />
        </mxCell>
        <mxCell id="Qi7yZzlvUK0p3pHNjVTs-10" value="Small amount of data" style="text;html=1;align=center;verticalAlign=middle;whiteSpace=wrap;rounded=0;" vertex="1" parent="1">
          <mxGeometry x="120" y="405" width="60" height="30" as="geometry" />
        </mxCell>
        <mxCell id="Qi7yZzlvUK0p3pHNjVTs-11" value="Simple preprocessing pipeline" style="text;html=1;align=center;verticalAlign=middle;whiteSpace=wrap;rounded=0;" vertex="1" parent="1">
          <mxGeometry x="270" y="270" width="60" height="30" as="geometry" />
        </mxCell>
        <mxCell id="Qi7yZzlvUK0p3pHNjVTs-12" value="Complex preprocessing pipeline" style="text;html=1;align=center;verticalAlign=middle;whiteSpace=wrap;rounded=0;" vertex="1" parent="1">
          <mxGeometry x="470" y="270" width="60" height="30" as="geometry" />
        </mxCell>
      </root>
    </mxGraphModel>
  </diagram>
</mxfile>
